<mxfile host="app.diagrams.net" modified="2023-03-27T01:27:26.350Z" agent="Mozilla/5.0 (Windows NT 10.0; Win64; x64) AppleWebKit/537.36 (KHTML, like Gecko) Chrome/111.0.0.0 Safari/537.36 Edg/111.0.1661.41" etag="xP9t7OSs1iFXOw42kFuo" version="21.1.1" type="github">
  <diagram name="第 1 页" id="x4-oW1hvQLXdEULdkfcq">
    <mxGraphModel dx="880" dy="452" grid="1" gridSize="10" guides="1" tooltips="1" connect="1" arrows="1" fold="1" page="1" pageScale="1" pageWidth="827" pageHeight="1169" math="0" shadow="0">
      <root>
        <mxCell id="0" />
        <mxCell id="1" parent="0" />
        <mxCell id="FFHXGkqfluXQrECaGBsv-5" style="edgeStyle=orthogonalEdgeStyle;rounded=0;orthogonalLoop=1;jettySize=auto;html=1;entryX=0;entryY=0.5;entryDx=0;entryDy=0;" edge="1" parent="1" source="FFHXGkqfluXQrECaGBsv-1" target="FFHXGkqfluXQrECaGBsv-4">
          <mxGeometry relative="1" as="geometry" />
        </mxCell>
        <mxCell id="FFHXGkqfluXQrECaGBsv-6" style="edgeStyle=orthogonalEdgeStyle;rounded=0;orthogonalLoop=1;jettySize=auto;html=1;entryX=0;entryY=0.5;entryDx=0;entryDy=0;" edge="1" parent="1" source="FFHXGkqfluXQrECaGBsv-1" target="FFHXGkqfluXQrECaGBsv-2">
          <mxGeometry relative="1" as="geometry" />
        </mxCell>
        <mxCell id="FFHXGkqfluXQrECaGBsv-8" style="edgeStyle=orthogonalEdgeStyle;rounded=0;orthogonalLoop=1;jettySize=auto;html=1;entryX=0;entryY=0.5;entryDx=0;entryDy=0;" edge="1" parent="1" source="FFHXGkqfluXQrECaGBsv-1" target="FFHXGkqfluXQrECaGBsv-7">
          <mxGeometry relative="1" as="geometry" />
        </mxCell>
        <mxCell id="FFHXGkqfluXQrECaGBsv-10" style="edgeStyle=orthogonalEdgeStyle;rounded=0;orthogonalLoop=1;jettySize=auto;html=1;entryX=0;entryY=0.5;entryDx=0;entryDy=0;" edge="1" parent="1" source="FFHXGkqfluXQrECaGBsv-1" target="FFHXGkqfluXQrECaGBsv-9">
          <mxGeometry relative="1" as="geometry" />
        </mxCell>
        <mxCell id="FFHXGkqfluXQrECaGBsv-1" value="运营人员" style="shape=umlActor;verticalLabelPosition=bottom;verticalAlign=top;html=1;outlineConnect=0;" vertex="1" parent="1">
          <mxGeometry x="150" y="120" width="30" height="60" as="geometry" />
        </mxCell>
        <mxCell id="FFHXGkqfluXQrECaGBsv-14" style="edgeStyle=orthogonalEdgeStyle;rounded=0;orthogonalLoop=1;jettySize=auto;html=1;" edge="1" parent="1" source="FFHXGkqfluXQrECaGBsv-2" target="FFHXGkqfluXQrECaGBsv-13">
          <mxGeometry relative="1" as="geometry" />
        </mxCell>
        <mxCell id="FFHXGkqfluXQrECaGBsv-2" value="微食堂管理" style="ellipse;whiteSpace=wrap;html=1;" vertex="1" parent="1">
          <mxGeometry x="330" y="150" width="140" height="70" as="geometry" />
        </mxCell>
        <mxCell id="FFHXGkqfluXQrECaGBsv-12" style="edgeStyle=orthogonalEdgeStyle;rounded=0;orthogonalLoop=1;jettySize=auto;html=1;entryX=0;entryY=0.5;entryDx=0;entryDy=0;" edge="1" parent="1" source="FFHXGkqfluXQrECaGBsv-4" target="FFHXGkqfluXQrECaGBsv-11">
          <mxGeometry relative="1" as="geometry" />
        </mxCell>
        <mxCell id="FFHXGkqfluXQrECaGBsv-4" value="前置仓管理" style="ellipse;whiteSpace=wrap;html=1;" vertex="1" parent="1">
          <mxGeometry x="330" y="30" width="140" height="70" as="geometry" />
        </mxCell>
        <mxCell id="FFHXGkqfluXQrECaGBsv-7" value="商业伙伴管理" style="ellipse;whiteSpace=wrap;html=1;" vertex="1" parent="1">
          <mxGeometry x="330" y="270" width="140" height="70" as="geometry" />
        </mxCell>
        <mxCell id="FFHXGkqfluXQrECaGBsv-9" value="商品管理" style="ellipse;whiteSpace=wrap;html=1;" vertex="1" parent="1">
          <mxGeometry x="330" y="380" width="140" height="70" as="geometry" />
        </mxCell>
        <mxCell id="FFHXGkqfluXQrECaGBsv-11" value="商品入库" style="ellipse;whiteSpace=wrap;html=1;" vertex="1" parent="1">
          <mxGeometry x="570" y="30" width="140" height="70" as="geometry" />
        </mxCell>
        <mxCell id="FFHXGkqfluXQrECaGBsv-13" value="商品入库" style="ellipse;whiteSpace=wrap;html=1;" vertex="1" parent="1">
          <mxGeometry x="570" y="150" width="140" height="70" as="geometry" />
        </mxCell>
      </root>
    </mxGraphModel>
  </diagram>
</mxfile>
